<svg width="587" height="147" viewBox="0 0 587 147" fill="none" xmlns="http://www.w3.org/2000/svg">
<path d="M119.4 44.6V144H151.2V0.399989H105.4L76.2 94.6L47 0.399989H0.400001V144H32.2V44.6L63.8 144H87.8L119.4 44.6ZM258.433 52C253.633 47 248.033 43.2 241.433 40.4C234.833 37.8 227.633 36.4 220.033 36.4C212.233 36.4 205.033 37.8 198.433 40.4C191.833 43.2 186.233 47 181.433 52C176.833 57 173.233 62.8 170.833 69.6C168.433 76.4 167.233 83.6 167.233 91.4C167.233 99.4 168.433 106.6 170.833 113.2C173.233 120 176.833 125.8 181.433 130.6C186.233 135.8 191.833 139.6 198.433 142.2C205.033 145 212.233 146.2 220.033 146.2C227.633 146.2 234.833 145 241.433 142.2C248.033 139.6 253.633 135.8 258.433 130.6C263.033 125.8 266.633 120 269.033 113.2C271.433 106.6 272.833 99.4 272.833 91.4C272.833 83.6 271.433 76.4 269.033 69.6C266.633 63 263.033 57.2 258.433 52ZM220.033 62.6C226.433 62.6 231.633 65.2 235.433 70.2C239.033 75.4 241.033 82.4 241.033 91.4C241.033 100.6 239.033 107.6 235.433 112.6C231.633 117.8 226.433 120.2 220.033 120.2C213.433 120.2 208.233 117.8 204.633 112.6C200.833 107.6 199.033 100.6 199.033 91.4C199.033 82.4 200.833 75.4 204.633 70.2C208.233 65.2 213.433 62.6 220.033 62.6ZM407.877 44.6V144H439.677V0.399989H393.877L364.677 94.6L335.477 0.399989H288.877V144H320.677V44.6L352.277 144H376.277L407.877 44.6ZM554.709 0.399989V88.2L495.909 0.399989H462.509V144H494.509V51.4L557.709 144H586.709V0.399989H554.709Z" fill="#13120F"></path>
</svg>
